<?xml version="1.0" standalone="no"?>
<!DOCTYPE svg PUBLIC "-//W3C//DTD SVG 20010904//EN"
 "http://www.w3.org/TR/2001/REC-SVG-20010904/DTD/svg10.dtd">
<svg version="1.0" xmlns="http://www.w3.org/2000/svg"
 width="595.000000pt" height="596.000000pt" viewBox="0 0 595.000000 596.000000"
 preserveAspectRatio="xMidYMid meet">
<g transform="translate(0.000000,596.000000) scale(0.100000,-0.100000)"
fill="#da4e4e" stroke="none">
<path d="M0 5945 c0 -13 346 -15 2975 -15 2638 0 2975 2 2975 15 0 13 -337 15
-2975 15 -2629 0 -2975 -2 -2975 -15z"/>
<path d="M2 2958 l3 -2963 5 2955 c3 1625 8 2954 13 2953 4 -2 1337 -3 2962
-3 l2955 0 3 -2952 2 -2953 3 2963 2 2962 -2975 0 -2975 0 2 -2962z"/>
<path d="M2869 5567 c-3 -4 -36 -8 -75 -11 -111 -7 -338 -37 -349 -46 -6 -5
-20 -9 -30 -9 -25 0 -161 -34 -195 -48 -14 -6 -41 -14 -60 -18 -19 -4 -53 -16
-75 -25 -22 -10 -51 -22 -65 -25 -56 -16 -342 -156 -371 -181 -8 -8 -18 -14
-21 -14 -10 0 -269 -176 -278 -188 -3 -4 -17 -15 -32 -25 -79 -50 -388 -376
-471 -497 -106 -155 -163 -249 -229 -380 -43 -85 -78 -162 -78 -172 0 -9 -4
-19 -9 -23 -5 -3 -19 -38 -32 -78 -12 -39 -26 -79 -30 -87 -24 -43 -91 -358
-108 -510 -5 -47 -12 -133 -15 -192 l-5 -108 288 0 288 0 2 72 c1 39 4 75 7
80 3 5 14 75 25 157 10 82 23 160 28 173 6 13 18 61 27 108 9 47 19 90 23 95
5 6 16 39 26 75 9 36 21 70 25 75 4 6 15 37 25 70 9 33 20 62 25 65 4 3 15 28
24 57 9 28 24 57 32 63 7 7 14 18 14 26 0 19 91 183 128 229 4 6 19 30 34 55
14 25 38 56 52 69 14 14 26 30 26 37 0 7 3 14 8 16 4 2 37 40 75 85 60 72 245
253 260 253 5 0 29 19 76 60 18 15 31 24 86 60 17 10 36 24 43 30 6 6 12 8 12
5 0 -3 6 -1 13 5 42 35 241 140 266 140 6 0 11 4 11 8 0 5 19 14 43 21 23 7
56 19 72 27 51 23 185 65 280 86 178 40 253 49 472 55 242 6 425 -6 558 -37
44 -10 107 -24 140 -30 33 -7 65 -15 70 -20 6 -4 39 -15 75 -25 36 -9 70 -21
75 -25 6 -4 28 -13 50 -20 38 -12 233 -100 265 -120 8 -5 42 -25 75 -44 33
-19 84 -51 113 -70 28 -20 54 -36 57 -36 3 0 13 -8 24 -17 10 -10 33 -29 51
-43 110 -83 297 -270 375 -374 11 -15 28 -36 38 -47 9 -10 17 -21 17 -24 0 -3
16 -27 35 -54 19 -26 35 -53 35 -59 0 -6 6 -15 13 -19 8 -4 34 -46 58 -93 24
-47 47 -87 50 -90 3 -3 14 -27 24 -55 11 -27 24 -53 29 -57 6 -4 7 -8 2 -8 -5
0 -4 -6 1 -12 6 -7 16 -31 23 -53 7 -22 16 -44 20 -50 5 -5 16 -37 25 -70 9
-33 23 -78 31 -100 38 -105 79 -337 94 -533 16 -200 33 -237 25 -52 -9 187
-41 390 -90 570 -31 115 -29 108 -43 143 -7 16 -12 32 -12 37 0 5 -5 21 -12
37 -6 15 -12 30 -13 33 -17 49 -134 300 -145 310 -3 3 -14 24 -24 48 -11 23
-22 42 -26 42 -4 0 -13 12 -19 28 -6 15 -27 50 -47 77 -19 28 -45 66 -58 85
-13 19 -38 53 -57 76 -19 22 -47 58 -64 80 -72 96 -434 434 -465 434 -6 0 -10
4 -10 10 0 5 -15 17 -32 26 -18 9 -35 20 -38 24 -3 3 -34 24 -70 46 -36 21
-79 48 -95 59 -63 41 -298 152 -370 175 -22 7 -44 16 -50 20 -5 4 -39 15 -75
25 -36 9 -69 20 -75 25 -5 4 -48 15 -95 24 -47 10 -96 21 -110 27 -21 7 -158
27 -315 44 -73 8 -321 17 -326 12z m-73 -35 c-2 -4 32 -4 77 0 45 4 143 6 217
4 74 -3 149 -5 165 -5 21 -1 26 -4 16 -10 -8 -5 7 -8 38 -6 28 1 54 -2 57 -6
3 -5 17 -6 31 -3 20 5 25 4 21 -7 -4 -11 6 -14 46 -15 76 -2 156 -15 150 -25
-3 -5 1 -6 9 -3 8 3 22 -3 32 -12 14 -15 18 -15 26 -3 7 11 9 11 9 1 0 -7 4
-11 9 -7 11 6 62 -15 57 -24 -2 -3 6 -7 17 -8 94 -9 115 -17 96 -39 -8 -10 -8
-14 0 -14 6 0 11 5 11 10 0 16 27 11 34 -6 5 -12 2 -15 -11 -10 -14 6 -15 4
-6 -5 13 -13 36 -2 27 13 -5 8 -1 9 10 5 10 -4 22 -7 27 -7 6 0 8 -4 5 -9 -4
-5 2 -7 13 -4 10 3 22 0 25 -6 4 -6 15 -11 25 -11 10 0 24 -7 31 -15 7 -8 16
-12 21 -9 5 3 9 -2 9 -11 0 -9 5 -13 10 -10 6 3 19 3 31 0 17 -6 18 -9 7 -22
-12 -15 -11 -15 10 -4 12 6 22 7 22 2 0 -5 -6 -12 -12 -15 -7 -3 1 -3 17 0 24
5 27 3 15 -6 -12 -9 -10 -10 13 -6 27 6 38 -7 15 -18 -7 -3 -2 -3 11 0 19 5
23 3 18 -10 -8 -20 0 -24 51 -27 23 -2 42 -7 42 -11 0 -4 -6 -8 -12 -8 -9 0
-8 -3 2 -10 9 -6 17 -5 22 3 6 9 8 9 8 -1 0 -7 11 -17 25 -22 14 -5 25 -14 25
-19 0 -6 6 -8 14 -5 14 5 46 -20 46 -37 0 -6 5 -7 11 -4 17 11 40 -27 26 -44
-10 -12 -9 -12 10 -3 30 16 33 15 34 -10 1 -19 2 -19 6 -5 4 16 13 10 54 -31
27 -27 51 -47 54 -44 3 3 5 0 5 -6 0 -7 -5 -12 -11 -12 -5 0 -7 -5 -4 -10 4
-6 15 -8 25 -5 10 3 21 1 25 -4 4 -7 -1 -8 -12 -5 -12 4 -10 0 7 -15 14 -11
30 -20 35 -20 6 0 4 3 -2 6 -7 2 -13 9 -13 15 0 6 6 6 15 -2 8 -7 13 -16 10
-20 -3 -5 1 -10 9 -12 12 -3 12 -5 0 -16 -11 -10 -14 -10 -14 2 0 8 -13 17
-30 21 -18 4 -30 13 -30 22 0 9 -3 13 -7 10 -3 -4 -13 3 -21 14 -12 17 -16 18
-24 8 -8 -11 -9 -10 -5 3 6 19 -18 57 -29 45 -4 -4 -2 -7 4 -7 7 0 12 -8 12
-17 0 -14 -2 -15 -9 -5 -4 7 -14 14 -22 15 -25 4 -38 17 -32 32 3 8 0 15 -6
15 -6 0 -11 -4 -11 -9 0 -5 -11 -4 -25 2 -14 7 -23 17 -21 24 3 7 -1 10 -8 7
-7 -3 -18 2 -25 10 -7 8 -18 13 -24 10 -7 -2 -13 6 -13 21 -2 29 4 31 22 8 7
-10 14 -13 14 -6 0 6 -4 14 -10 18 -5 3 -7 13 -4 23 4 12 3 14 -3 4 -6 -7 -14
-12 -19 -11 -20 4 -24 -2 -14 -21 9 -16 8 -20 -5 -20 -8 0 -15 8 -15 18 0 11
-3 13 -8 5 -5 -8 -13 -9 -22 -3 -10 7 -11 10 -2 10 6 0 12 4 12 9 0 4 -11 6
-25 3 -16 -3 -25 0 -25 8 0 7 -7 10 -15 6 -8 -3 -15 -1 -15 4 0 6 -9 10 -20
10 -11 0 -20 4 -20 9 0 5 -17 11 -38 15 -21 3 -49 15 -62 26 -13 11 -30 18
-37 16 -7 -3 -15 -1 -18 4 -3 5 -13 6 -23 3 -13 -4 -13 -2 3 11 19 16 19 16
-8 6 -35 -13 -40 -13 -32 0 4 6 -6 10 -22 10 -19 0 -24 3 -15 9 11 7 11 9 -2
14 -8 3 -16 1 -18 -4 -4 -11 -112 15 -133 31 -5 5 -30 11 -55 14 -49 7 -54 8
-210 32 -69 11 -179 17 -322 18 -141 1 -214 4 -210 11 3 6 -1 4 -10 -2 -8 -7
-39 -15 -69 -18 -77 -9 -212 -33 -298 -56 -41 -10 -76 -17 -79 -14 -2 2 -17
-2 -32 -10 -15 -8 -31 -11 -34 -7 -4 3 -11 0 -16 -8 -5 -8 -24 -14 -46 -13
-25 1 -33 -2 -23 -8 11 -7 11 -9 -3 -9 -9 0 -19 6 -22 13 -4 6 -5 3 -3 -8 3
-16 -2 -21 -21 -23 -14 -1 -29 -7 -33 -14 -6 -9 -11 -8 -24 2 -13 11 -15 11
-13 0 2 -7 -3 -15 -10 -17 -8 -3 -10 2 -6 14 5 15 4 15 -7 -2 -14 -22 -37 -46
-41 -44 -4 1 -62 -24 -68 -31 -3 -3 -14 -6 -25 -8 -32 -5 -65 -24 -58 -35 3
-6 2 -7 -4 -4 -5 4 -19 -2 -30 -13 -14 -13 -24 -15 -31 -8 -12 12 -35 1 -26
-13 3 -6 -3 -13 -15 -16 -12 -3 -21 -9 -21 -13 0 -5 -8 -16 -17 -25 -16 -16
-17 -16 -30 1 -12 17 -13 17 -13 -3 0 -22 -25 -38 -42 -27 -6 4 -5 10 3 15 10
6 10 9 2 9 -22 0 -26 -23 -7 -38 18 -13 17 -14 -8 -8 -16 4 -30 1 -34 -6 -4
-6 -3 -8 4 -4 6 3 13 2 16 -3 4 -5 -3 -12 -14 -16 -12 -4 -17 -11 -14 -18 4
-7 4 -9 -1 -5 -4 4 -15 2 -23 -5 -13 -10 -15 -9 -8 3 4 8 1 7 -7 -3 -9 -10
-19 -19 -24 -19 -11 -1 -50 -28 -40 -28 5 0 18 5 30 11 17 8 16 5 -6 -16 -16
-14 -33 -23 -38 -20 -5 4 -9 -2 -9 -11 0 -10 -3 -15 -6 -11 -3 3 -22 -10 -41
-29 -25 -25 -41 -33 -56 -30 -12 3 -16 3 -9 0 6 -3 12 -11 12 -18 0 -15 -67
-86 -74 -78 -3 3 -6 -2 -6 -12 0 -9 -4 -15 -9 -12 -5 3 -8 -2 -7 -12 1 -11 -6
-17 -21 -17 -12 0 -26 -5 -30 -9 -4 -5 -2 -6 5 -2 7 4 12 1 12 -8 0 -20 -17
-29 -24 -14 -4 7 -4 3 -2 -10 3 -18 1 -22 -10 -18 -11 4 -14 0 -12 -14 2 -10
-1 -19 -7 -19 -5 0 -13 -9 -17 -21 -6 -15 -13 -20 -24 -16 -14 5 -15 4 -4 -9
8 -10 9 -15 1 -15 -6 0 -11 -7 -11 -15 0 -8 -4 -15 -10 -15 -5 0 -10 -7 -10
-16 0 -8 -4 -12 -10 -9 -6 3 -10 -4 -10 -16 0 -12 -11 -32 -25 -45 -14 -13
-25 -28 -25 -34 0 -5 -4 -10 -10 -10 -5 0 -10 -5 -10 -11 0 -5 5 -7 12 -3 7 4
8 3 4 -5 -4 -6 -11 -9 -16 -6 -4 3 -10 -5 -14 -18 -5 -18 -8 -20 -16 -7 -6 9
-10 10 -10 3 0 -6 5 -15 10 -18 6 -3 10 -11 10 -16 0 -6 -4 -7 -10 -4 -6 3 -7
-1 -4 -9 3 -9 1 -16 -5 -16 -6 0 -11 -7 -11 -15 0 -9 -6 -18 -14 -21 -8 -3
-18 -20 -21 -37 -4 -18 -19 -59 -35 -92 -15 -33 -31 -72 -34 -87 -6 -28 -26
-39 -26 -15 0 7 -5 5 -10 -5 -7 -11 -7 -26 0 -43 12 -33 12 -35 0 -35 -5 0
-10 8 -11 18 0 9 -3 12 -5 5 -3 -7 0 -21 6 -32 6 -12 7 -21 2 -21 -5 0 -12
-18 -16 -40 -3 -23 -10 -39 -14 -36 -4 2 -8 -12 -9 -32 -1 -20 -7 -38 -13 -40
-5 -2 -8 -7 -5 -12 3 -4 -2 -37 -12 -72 -9 -34 -17 -70 -18 -78 -8 -59 -29
-140 -38 -140 -5 0 -4 -6 3 -15 6 -8 9 -19 5 -26 -4 -6 -11 -43 -16 -83 -4
-39 -11 -80 -14 -91 -6 -16 -5 -17 4 -5 12 17 14 6 5 -27 -4 -13 -10 -20 -15
-17 -5 3 -5 -6 1 -20 8 -23 7 -26 -13 -26 -12 0 -125 -2 -252 -4 -231 -4 -263
0 -259 32 1 6 2 33 3 60 2 44 3 46 16 28 19 -25 19 -16 0 20 -18 35 -21 78 -4
54 8 -11 9 -3 4 30 -6 46 2 115 30 250 8 41 15 88 15 104 0 24 2 27 15 16 11
-9 19 -10 26 -3 8 8 7 13 -2 18 -8 5 -10 4 -5 -3 4 -7 2 -12 -3 -12 -6 0 -11
14 -11 31 0 17 4 28 10 24 5 -3 10 4 9 17 -1 30 8 69 27 121 9 23 16 47 16 54
1 7 6 9 11 6 6 -4 8 1 4 11 -4 10 -3 15 3 11 6 -4 9 4 7 17 -1 13 3 22 9 21 6
-1 11 4 11 12 0 8 -4 12 -9 9 -18 -12 18 53 42 73 14 12 19 22 13 23 -7 0 -13
-5 -13 -12 0 -6 -3 -9 -6 -5 -3 3 -3 15 1 27 6 18 9 19 22 8 14 -12 15 -11 5
9 -10 19 -9 24 7 32 10 6 22 7 26 3 5 -4 5 -2 1 5 -4 7 -14 9 -23 6 -11 -4
-14 -3 -9 5 4 7 15 12 24 13 9 0 12 3 6 5 -9 4 -8 14 4 37 20 43 22 44 33 27
8 -11 9 -10 4 8 -4 14 1 32 13 50 10 15 17 33 14 41 -2 8 0 11 5 8 6 -4 15 5
22 19 6 14 16 22 22 18 8 -4 8 0 0 15 -10 17 -9 21 4 21 9 0 14 4 10 9 -3 6 4
15 15 21 12 6 19 17 17 25 -3 7 8 25 24 41 21 20 29 23 29 12 0 -9 -7 -21 -15
-28 -8 -7 -15 -17 -15 -23 0 -5 9 -2 20 8 22 20 26 50 10 60 -8 5 -7 11 1 21
6 7 16 11 22 7 6 -4 8 0 4 10 -4 11 2 22 16 32 12 8 18 15 14 15 -4 0 -3 6 2
13 51 63 74 86 82 81 5 -3 8 -1 7 4 -4 12 51 82 64 82 5 0 6 -6 2 -12 -4 -7 3
-3 15 9 11 12 21 26 21 30 0 4 -5 2 -12 -5 -7 -7 -17 -12 -22 -12 -6 0 1 8 17
18 15 10 24 22 20 25 -6 6 20 11 39 8 5 0 7 2 6 6 -5 19 15 54 28 49 7 -3 13
0 11 6 -1 7 5 13 13 13 8 0 14 6 13 13 -3 12 9 16 34 13 6 -1 15 4 19 10 4 7
3 9 -4 5 -6 -3 -13 -2 -16 3 -4 5 7 12 24 16 16 4 30 11 30 16 0 6 5 7 10 4
14 -8 42 15 37 29 -2 6 10 23 27 38 53 47 121 98 130 98 5 0 20 12 33 26 13
15 30 23 38 20 10 -3 15 1 16 12 0 10 3 12 6 4 2 -6 9 -10 13 -7 5 3 6 13 3
22 -4 10 -2 14 5 9 6 -3 13 -2 17 4 3 5 13 10 21 10 8 0 24 9 36 20 12 11 24
18 27 15 2 -3 -4 -12 -15 -20 -10 -8 -13 -15 -7 -15 7 0 20 12 29 26 12 17 23
24 36 20 15 -3 18 -1 14 11 -5 13 -4 14 9 3 13 -11 14 -10 10 3 -4 8 -1 18 6
23 7 4 10 3 6 -3 -4 -6 4 -10 18 -10 14 0 25 4 25 9 0 5 -4 6 -10 3 -5 -3 -10
-1 -10 4 0 10 6 12 43 15 6 1 21 9 32 19 10 10 25 15 33 12 7 -2 11 -1 7 4 -6
11 15 20 32 13 7 -2 10 -9 6 -15 -3 -6 -1 -7 6 -3 6 4 8 12 5 18 -9 15 17 29
41 22 11 -4 17 -3 12 1 -4 5 14 16 40 24 27 9 51 12 54 7 4 -5 12 -5 19 -1 9
6 9 10 -1 17 -10 7 -5 8 14 3 17 -3 26 -2 23 3 -9 15 47 22 63 9 12 -10 14 -9
9 5 -8 19 25 31 41 15 8 -8 11 -8 11 1 0 7 8 12 18 12 9 0 35 7 57 15 50 18
79 19 69 3 -4 -7 -3 -8 5 -4 6 4 9 11 6 16 -3 4 15 10 39 11 24 2 42 1 39 -3
-2 -5 1 -8 6 -8 6 0 11 4 11 9 0 12 44 22 119 27 35 2 66 6 69 9 8 8 34 6 28
-3z m1497 -349 c-7 -2 -21 -2 -30 0 -10 3 -4 5 12 5 17 0 24 -2 18 -5z m-2946
-236 c-2 -7 -10 -12 -18 -12 -8 0 -20 -4 -27 -9 -11 -6 -11 -4 -2 11 13 21 54
29 47 10z m3443 -152 c0 -8 -7 -15 -15 -15 -9 0 -12 6 -9 15 4 8 10 15 15 15
5 0 9 -7 9 -15z m145 -143 c-1 -2 -18 11 -36 27 -18 17 -39 31 -46 31 -7 0
-10 7 -7 15 4 8 1 15 -5 15 -6 0 -11 -5 -11 -11 0 -7 -9 0 -21 15 -11 14 -18
30 -14 36 3 5 37 -20 75 -58 37 -37 67 -68 65 -70z m16 -35 c-10 -9 -11 -8 -5
6 3 10 9 15 12 12 3 -3 0 -11 -7 -18z"/>
<path d="M3841 5374 c0 -11 3 -14 6 -6 3 7 2 16 -1 19 -3 4 -6 -2 -5 -13z"/>
<path d="M2108 5373 c6 -2 18 -2 25 0 6 3 1 5 -13 5 -14 0 -19 -2 -12 -5z"/>
<path d="M2070 5351 c0 -6 4 -13 10 -16 6 -3 7 1 4 9 -7 18 -14 21 -14 7z"/>
<path d="M2108 5343 c7 -3 16 -2 19 1 4 3 -2 6 -13 5 -11 0 -14 -3 -6 -6z"/>
<path d="M3848 5333 c7 -3 16 -2 19 1 4 3 -2 6 -13 5 -11 0 -14 -3 -6 -6z"/>
<path d="M2768 5313 c7 -3 16 -2 19 1 4 3 -2 6 -13 5 -11 0 -14 -3 -6 -6z"/>
<path d="M4018 5303 c7 -3 16 -2 19 1 4 3 -2 6 -13 5 -11 0 -14 -3 -6 -6z"/>
<path d="M3750 5290 c8 -5 26 -10 39 -10 32 0 24 6 -19 14 -25 4 -31 3 -20 -4z"/>
<path d="M2738 5283 c6 -2 18 -2 25 0 6 3 1 5 -13 5 -14 0 -19 -2 -12 -5z"/>
<path d="M4078 5243 c7 -3 16 -2 19 1 4 3 -2 6 -13 5 -11 0 -14 -3 -6 -6z"/>
<path d="M4015 5230 c-3 -5 -1 -10 4 -10 6 0 11 5 11 10 0 6 -2 10 -4 10 -3 0
-8 -4 -11 -10z"/>
<path d="M4110 5230 c0 -5 5 -10 11 -10 5 0 7 5 4 10 -3 6 -8 10 -11 10 -2 0
-4 -4 -4 -10z"/>
<path d="M2346 5181 c-4 -5 3 -7 14 -4 23 6 26 13 6 13 -8 0 -17 -4 -20 -9z"/>
<path d="M1650 5173 c0 -5 13 -8 29 -8 16 0 27 3 24 8 -2 4 -15 7 -29 7 -13 0
-24 -3 -24 -7z"/>
<path d="M4165 5150 c-3 -5 -1 -10 4 -10 6 0 11 5 11 10 0 6 -2 10 -4 10 -3 0
-8 -4 -11 -10z"/>
<path d="M2190 5130 c0 -5 5 -10 11 -10 5 0 7 5 4 10 -3 6 -8 10 -11 10 -2 0
-4 -4 -4 -10z"/>
<path d="M1536 5082 l-19 -27 26 24 c28 26 32 31 20 31 -5 0 -17 -13 -27 -28z"/>
<path d="M2176 5094 c-11 -8 -16 -14 -10 -14 13 0 39 18 34 24 -3 2 -14 -2
-24 -10z"/>
<path d="M4325 5090 c-3 -5 -1 -10 4 -10 6 0 11 5 11 10 0 6 -2 10 -4 10 -3 0
-8 -4 -11 -10z"/>
<path d="M4485 5030 c-3 -5 -1 -10 4 -10 6 0 11 5 11 10 0 6 -2 10 -4 10 -3 0
-8 -4 -11 -10z"/>
<path d="M1956 4981 c-10 -11 -16 -26 -13 -33 4 -9 6 -7 6 4 1 9 9 21 18 27
10 5 15 12 12 15 -3 4 -14 -3 -23 -13z"/>
<path d="M4570 4971 c0 -5 7 -12 16 -15 14 -5 15 -4 4 9 -14 17 -20 19 -20 6z"/>
<path d="M4555 4940 c3 -5 8 -10 11 -10 2 0 4 5 4 10 0 6 -5 10 -11 10 -5 0
-7 -4 -4 -10z"/>
<path d="M1780 4877 c-12 -21 -12 -21 6 -7 10 8 20 15 22 16 2 1 -1 4 -5 7 -5
3 -15 -4 -23 -16z"/>
<path d="M1696 4832 c-7 -12 12 -38 21 -28 4 5 2 11 -5 13 -6 3 -10 9 -6 14 3
5 3 9 0 9 -3 0 -7 -4 -10 -8z"/>
<path d="M1175 4800 c-3 -5 -1 -10 4 -10 6 0 11 5 11 10 0 6 -2 10 -4 10 -3 0
-8 -4 -11 -10z"/>
<path d="M1565 4650 c3 -5 8 -10 11 -10 2 0 4 5 4 10 0 6 -5 10 -11 10 -5 0
-7 -4 -4 -10z"/>
<path d="M970 4550 c0 -5 5 -10 11 -10 5 0 7 5 4 10 -3 6 -8 10 -11 10 -2 0
-4 -4 -4 -10z"/>
<path d="M891 4424 c0 -11 3 -14 6 -6 3 7 2 16 -1 19 -3 4 -6 -2 -5 -13z"/>
<path d="M1290 4350 c6 -11 13 -20 16 -20 2 0 0 9 -6 20 -6 11 -13 20 -16 20
-2 0 0 -9 6 -20z"/>
<path d="M1286 4293 c-6 -14 -5 -15 5 -6 7 7 10 15 7 18 -3 3 -9 -2 -12 -12z"/>
<path d="M667 4119 c7 -7 15 -10 18 -7 3 3 -2 9 -12 12 -14 6 -15 5 -6 -5z"/>
<path d="M1110 4032 c0 -4 6 -14 13 -21 10 -11 10 -14 0 -18 -7 -3 -13 -10
-13 -16 0 -6 7 -4 17 5 13 13 14 20 5 31 -7 8 -9 17 -5 20 3 4 1 7 -5 7 -7 0
-12 -4 -12 -8z"/>
<path d="M1091 3934 c0 -11 3 -14 6 -6 3 7 2 16 -1 19 -3 4 -6 -2 -5 -13z"/>
<path d="M531 3754 c0 -11 3 -14 6 -6 3 7 2 16 -1 19 -3 4 -6 -2 -5 -13z"/>
<path d="M1011 3684 c0 -11 3 -14 6 -6 3 7 2 16 -1 19 -3 4 -6 -2 -5 -13z"/>
<path d="M442 3505 c0 -16 2 -22 5 -12 2 9 2 23 0 30 -3 6 -5 -1 -5 -18z"/>
<path d="M916 3384 c-10 -25 1 -29 14 -5 6 12 7 21 1 21 -5 0 -12 -7 -15 -16z"/>
<path d="M392 3220 c0 -14 2 -19 5 -12 2 6 2 18 0 25 -3 6 -5 1 -5 -13z"/>
<path d="M891 3124 c0 -11 3 -14 6 -6 3 7 2 16 -1 19 -3 4 -6 -2 -5 -13z"/>
<path d="M4815 4750 c3 -5 8 -10 11 -10 2 0 4 5 4 10 0 6 -5 10 -11 10 -5 0
-7 -4 -4 -10z"/>
<path d="M4380 5220 c0 -5 5 -10 10 -10 6 0 10 5 10 10 0 6 -4 10 -10 10 -5 0
-10 -4 -10 -10z"/>
<path d="M3780 5170 c-18 -12 -2 -12 25 0 13 6 15 9 5 9 -8 0 -22 -4 -30 -9z"/>
<path d="M4328 4933 c7 -3 16 -2 19 1 4 3 -2 6 -13 5 -11 0 -14 -3 -6 -6z"/>
<path d="M4780 4910 c-9 -6 -10 -10 -3 -10 6 0 15 5 18 10 8 12 4 12 -15 0z"/>
<path d="M4840 4836 c0 -2 7 -7 16 -10 8 -3 12 -2 9 4 -6 10 -25 14 -25 6z"/>
<path d="M2391 4694 c0 -11 3 -14 6 -6 3 7 2 16 -1 19 -3 4 -6 -2 -5 -13z"/>
<path d="M3070 4686 c0 -2 7 -7 16 -10 8 -3 12 -2 9 4 -6 10 -25 14 -25 6z"/>
<path d="M2998 4673 c6 -2 10 -9 7 -14 -4 -5 1 -6 10 -2 13 5 14 7 3 14 -7 5
-17 8 -23 8 -5 0 -4 -3 3 -6z"/>
<path d="M2160 4038 c0 -598 -4 -680 -33 -714 -69 -84 -86 -88 -347 -92 l-225
-4 -95 -131 c-52 -72 -105 -141 -118 -154 l-22 -24 362 4 c345 3 367 5 438 26
235 73 357 199 400 414 16 81 18 148 19 558 l0 466 -27 20 c-15 10 -65 46
-112 78 -47 32 -114 79 -150 103 -36 25 -66 49 -68 54 -18 45 -22 -63 -22
-604z m155 476 c6 -7 29 -22 53 -35 33 -16 40 -24 30 -31 -9 -7 -8 -8 6 -4 19
7 90 -46 78 -59 -3 -3 2 -3 11 1 17 6 18 -18 14 -497 -3 -277 -7 -520 -11
-539 -10 -58 -32 -112 -57 -139 -13 -14 -18 -21 -12 -17 9 5 11 2 6 -10 -6
-15 -7 -15 -21 2 -13 18 -14 18 -8 -3 9 -29 -53 -99 -109 -124 -22 -10 -34
-19 -26 -19 22 0 8 -9 -50 -31 -72 -28 -174 -50 -196 -43 -15 5 -16 4 -3 -5
18 -13 45 -12 -320 -15 -157 -2 -293 0 -303 3 -16 6 -16 8 3 28 11 12 20 28
20 35 0 9 3 9 10 -2 8 -12 10 -10 10 8 0 13 4 20 10 17 6 -3 7 1 4 9 -3 9 -2
16 3 16 5 0 19 18 32 40 12 22 26 40 32 40 5 0 9 6 9 13 0 6 15 26 32 42 17
17 29 26 26 20 -4 -7 61 -9 190 -7 237 4 252 5 252 15 0 4 11 7 25 7 14 0 25
5 25 11 0 5 5 7 10 4 6 -4 9 -2 8 3 -2 5 6 18 18 28 32 29 57 72 62 107 6 47
18 1157 12 1157 -3 0 -5 15 -5 34 l-1 34 61 -41 c33 -22 65 -46 70 -53z"/>
<path d="M3050 4636 c-16 -15 -150 -108 -273 -189 l-78 -52 3 -520 4 -520 28
-70 c69 -175 165 -262 361 -328 l90 -31 438 -4 439 -3 -4 288 c-5 281 -5 290
-32 370 -50 151 -148 252 -307 315 -97 39 -237 59 -426 62 l-93 1 0 -156 0
-156 132 -7 c72 -4 152 -11 177 -17 69 -15 122 -56 154 -118 24 -50 27 -64 27
-163 l0 -109 -227 3 -228 3 -53 29 c-42 23 -57 40 -77 81 l-26 52 0 626 c0
345 -4 627 -8 627 -4 0 -13 -6 -21 -14z m8 -56 c-2 -25 -6 -29 -23 -24 -16 4
-17 3 -5 -5 12 -8 15 -42 16 -183 0 -95 2 -312 4 -483 1 -170 -1 -319 -5 -330
-5 -16 -5 -17 4 -5 8 11 10 -2 10 -52 -1 -42 -5 -66 -11 -62 -6 4 -5 -3 1 -15
7 -11 9 -21 5 -21 -3 0 -2 -6 3 -12 6 -7 13 -26 17 -41 7 -30 56 -87 74 -87 6
0 15 -7 20 -16 4 -8 26 -17 47 -20 21 -2 42 -7 47 -10 19 -12 419 -6 434 7 32
26 10 294 -25 319 -4 3 -10 12 -13 21 -7 19 -122 79 -150 79 -11 0 -27 4 -37
10 -15 8 -72 13 -229 19 -10 1 -12 30 -10 129 l3 127 80 0 c199 -1 284 -11
352 -41 17 -8 36 -14 41 -14 6 0 31 -11 55 -23 38 -21 42 -26 28 -35 -13 -9
-10 -10 11 -2 20 7 28 5 32 -6 3 -9 11 -12 18 -8 8 5 9 2 5 -10 -6 -14 -3 -17
8 -12 9 3 13 2 10 -4 -3 -6 1 -10 10 -10 9 0 14 -4 11 -8 -3 -5 5 -14 17 -21
22 -11 47 -53 47 -77 0 -6 7 -14 15 -18 8 -3 15 -14 15 -24 0 -10 3 -22 7 -26
15 -15 32 -128 23 -147 -6 -10 -10 -24 -9 -31 0 -7 4 -4 9 7 5 12 9 -78 9
-228 l0 -249 -410 4 c-332 2 -411 6 -418 17 -5 8 -16 11 -29 7 -19 -7 -64 7
-149 45 -24 10 -47 19 -52 19 -5 0 -13 9 -16 20 -4 11 -11 18 -16 15 -5 -4
-15 -3 -21 1 -9 6 -5 11 12 16 20 6 19 7 -8 3 -26 -4 -34 -1 -40 16 -5 11 -11
20 -15 20 -4 -1 -21 15 -38 34 -17 19 -28 35 -23 35 4 0 -2 10 -14 23 -12 13
-19 27 -15 31 4 4 2 10 -5 15 -6 4 -14 23 -16 44 -3 20 -10 45 -15 56 -6 10
-10 31 -9 47 1 16 -2 50 -6 77 -5 26 -4 47 0 47 5 0 8 48 7 107 -2 60 -4 251
-5 426 l-3 318 25 -6 c24 -6 24 -6 6 8 -19 14 -19 15 1 21 11 4 33 18 49 31
16 14 36 23 44 20 8 -4 11 -3 8 1 -8 7 15 34 29 34 4 0 20 11 35 25 15 14 31
25 37 25 5 0 11 4 13 8 2 7 76 59 86 61 1 1 1 -12 0 -29z"/>
<path d="M3650 3626 c0 -2 8 -10 18 -17 15 -13 16 -12 3 4 -13 16 -21 21 -21
13z"/>
<path d="M2766 3317 c3 -10 9 -15 12 -12 3 3 0 11 -7 18 -10 9 -11 8 -5 -6z"/>
<path d="M2845 3160 c-3 -5 -1 -10 4 -10 6 0 11 5 11 10 0 6 -2 10 -4 10 -3 0
-8 -4 -11 -10z"/>
<path d="M1580 4545 c-7 -9 -8 -15 -2 -15 5 0 12 7 16 15 3 8 4 15 2 15 -2 0
-9 -7 -16 -15z"/>
<path d="M2770 4500 c0 -6 7 -10 15 -10 8 0 15 2 15 4 0 2 -7 6 -15 10 -8 3
-15 1 -15 -4z"/>
<path d="M5175 4469 c-10 -30 0 -33 13 -4 6 14 7 25 2 25 -5 0 -12 -9 -15 -21z"/>
<path d="M4310 4416 c0 -2 7 -7 16 -10 8 -3 12 -2 9 4 -6 10 -25 14 -25 6z"/>
<path d="M4310 4360 c-47 -15 -107 -35 -135 -45 -27 -9 -76 -23 -108 -32 -57
-16 -64 -28 -19 -35 22 -3 24 -8 28 -96 4 -62 1 -98 -6 -107 -18 -22 -2 -55
25 -55 27 0 44 35 26 53 -6 6 -11 49 -11 100 l0 89 33 -7 c58 -13 64 -20 70
-85 3 -34 8 -64 11 -68 4 -3 19 4 34 15 46 34 99 46 184 41 67 -4 85 -9 121
-34 l42 -30 10 70 10 70 50 14 c132 36 155 44 150 53 -4 5 -15 9 -26 9 -10 0
-45 9 -76 19 -148 49 -291 91 -308 90 -11 0 -58 -13 -105 -29z m175 -15 c16
-3 32 -10 35 -14 6 -9 55 -22 83 -22 9 0 17 -8 17 -17 0 -12 3 -13 8 -5 6 10
14 9 36 -2 16 -8 36 -15 45 -15 9 -1 1 -8 -18 -16 -19 -8 -42 -12 -50 -9 -9 3
-12 3 -9 -1 4 -4 -3 -15 -16 -25 -14 -11 -26 -34 -30 -59 -6 -40 -6 -40 -34
-27 -31 16 -76 26 -144 33 -35 3 -58 -1 -88 -16 -21 -11 -49 -20 -61 -20 -19
0 -21 4 -15 38 4 23 3 32 -2 24 -7 -11 -11 -8 -17 10 -4 12 -7 26 -6 31 1 4
-8 8 -19 8 -11 1 -24 3 -30 4 -5 1 -17 3 -25 4 -8 0 -15 6 -15 12 0 5 5 7 10
4 6 -3 10 -2 10 3 0 5 25 15 55 22 30 7 52 17 49 22 -3 5 0 8 7 7 14 -2 60 7
89 18 8 3 21 7 28 9 8 1 17 5 20 9 6 5 20 4 87 -10z m-370 -85 c3 -5 2 -10 -4
-10 -5 0 -13 5 -16 10 -3 6 -2 10 4 10 5 0 13 -4 16 -10z"/>
<path d="M2635 4370 c-3 -5 -1 -10 4 -10 6 0 11 5 11 10 0 6 -2 10 -4 10 -3 0
-8 -4 -11 -10z"/>
<path d="M4025 4120 c-3 -5 -1 -10 4 -10 6 0 11 5 11 10 0 6 -2 10 -4 10 -3 0
-8 -4 -11 -10z"/>
<path d="M4150 4111 c0 -6 4 -13 10 -16 6 -3 7 1 4 9 -7 18 -14 21 -14 7z"/>
<path d="M4010 4094 c0 -13 18 -39 24 -34 2 3 -2 14 -10 24 -8 11 -14 16 -14
10z"/>
<path d="M4332 4040 c-35 -11 -75 -26 -88 -35 l-24 -15 0 -281 0 -280 30 21
c43 30 150 51 213 40 63 -10 84 -18 120 -42 l27 -19 0 279 0 280 -26 17 c-34
22 -133 55 -164 54 -14 0 -54 -9 -88 -19z m157 -26 c30 -6 81 -32 81 -42 0 -4
2 -112 3 -240 2 -254 4 -246 -57 -223 -72 28 -205 16 -255 -23 -12 -9 -13 -8
-8 7 4 10 2 17 -6 18 -7 0 -7 2 -2 5 6 2 9 86 7 229 l-3 224 25 16 c13 9 36
18 51 21 16 3 44 9 64 14 20 4 45 6 56 4 11 -3 31 -7 44 -10z"/>
<path d="M4168 3973 c7 -3 16 -2 19 1 4 3 -2 6 -13 5 -11 0 -14 -3 -6 -6z"/>
<path d="M5511 3834 c0 -11 3 -14 6 -6 3 7 2 16 -1 19 -3 4 -6 -2 -5 -13z"/>
<path d="M3991 3734 c0 -11 3 -14 6 -6 3 7 2 16 -1 19 -3 4 -6 -2 -5 -13z"/>
<path d="M4025 3670 c3 -5 8 -10 11 -10 2 0 4 5 4 10 0 6 -5 10 -11 10 -5 0
-7 -4 -4 -10z"/>
<path d="M2082 3500 c0 -14 2 -19 5 -12 2 6 2 18 0 25 -3 6 -5 1 -5 -13z"/>
<path d="M3238 3293 c7 -3 16 -2 19 1 4 3 -2 6 -13 5 -11 0 -14 -3 -6 -6z"/>
<path d="M4352 3190 c-43 -10 -46 -14 -32 -40 6 -12 29 -71 50 -132 l38 -109
31 88 c18 48 41 106 52 129 10 22 19 45 19 51 0 20 -96 28 -158 13z m77 -32
c11 -10 12 -10 7 -1 -5 9 -2 11 9 7 8 -4 14 -14 11 -23 -38 -138 -36 -134 -51
-115 -8 11 -17 34 -21 52 -3 17 -10 32 -14 32 -10 0 -21 41 -14 52 8 12 58 10
73 -4z"/>
<path d="M2750 3150 c0 -5 5 -10 11 -10 5 0 7 5 4 10 -3 6 -8 10 -11 10 -2 0
-4 -4 -4 -10z"/>
<path d="M281 3014 c0 -11 3 -14 6 -6 3 7 2 16 -1 19 -3 4 -6 -2 -5 -13z"/>
<path d="M5531 3014 c0 -11 3 -14 6 -6 3 7 2 16 -1 19 -3 4 -6 -2 -5 -13z"/>
<path d="M4465 2949 c-4 -6 -5 -12 -2 -15 2 -3 7 2 10 11 7 17 1 20 -8 4z"/>
<path d="M4025 2850 c-3 -5 -1 -10 4 -10 6 0 11 5 11 10 0 6 -2 10 -4 10 -3 0
-8 -4 -11 -10z"/>
<path d="M2370 2789 c-108 -18 -220 -98 -256 -184 -18 -44 -18 -156 0 -199 32
-78 150 -165 258 -191 15 -4 32 -13 39 -21 6 -8 18 -14 25 -14 23 0 16 -28
-11 -46 -43 -28 -174 5 -232 59 -13 11 -24 19 -26 16 -2 -2 -8 -15 -15 -29 -6
-14 -32 -56 -57 -95 l-44 -70 39 -36 c22 -20 57 -44 78 -53 20 -9 46 -22 57
-28 35 -20 172 -33 267 -27 129 8 204 48 284 151 20 25 34 81 34 132 0 142
-54 199 -277 297 -79 35 -92 57 -47 78 40 18 144 -8 174 -43 19 -24 24 -21 60
37 18 28 43 68 56 88 31 46 30 52 -10 84 -69 55 -111 73 -206 91 -85 15 -112
15 -190 3z m215 -39 c22 -10 59 -23 83 -30 23 -7 42 -18 42 -23 0 -6 2 -8 5
-5 3 3 17 -4 30 -16 28 -25 25 -32 -7 -16 -22 11 -22 11 2 -9 14 -11 19 -21
12 -21 -8 0 -10 -5 -6 -12 5 -7 2 -9 -8 -5 -12 4 -14 1 -11 -14 3 -10 0 -19
-6 -19 -6 0 -11 -6 -11 -12 0 -7 -9 -24 -19 -37 l-19 -24 -26 20 c-30 24 -109
46 -146 40 -24 -4 -80 -69 -79 -92 0 -5 3 -4 6 3 2 6 9 12 14 12 6 0 8 -4 5
-8 -3 -5 4 -14 14 -22 10 -8 17 -16 15 -20 -2 -3 8 -7 23 -8 14 -1 28 -5 31
-10 11 -14 52 -33 60 -27 5 3 7 -5 4 -17 -5 -23 -5 -23 11 -3 10 11 15 15 12
8 -4 -6 -2 -14 4 -18 5 -3 10 -1 10 5 0 15 49 -17 89 -59 18 -20 30 -29 26
-21 -7 12 -6 13 6 2 12 -11 12 -14 -1 -22 -13 -8 -12 -10 3 -10 9 0 17 -8 18
-17 0 -10 4 -44 8 -75 4 -32 3 -58 -1 -58 -4 0 -8 -9 -8 -20 0 -26 -35 -82
-45 -72 -4 4 -5 -2 -1 -13 4 -11 4 -17 1 -13 -6 6 -15 0 -66 -47 -9 -8 -26
-15 -38 -15 -12 0 -20 -4 -17 -8 2 -4 -3 -8 -12 -8 -9 -1 -44 -6 -77 -11 -66
-11 -121 -9 -207 5 -61 11 -118 32 -118 44 0 4 -7 5 -15 2 -12 -5 -14 -2 -8
12 6 17 5 18 -12 4 -17 -14 -18 -14 -5 10 13 24 12 24 -5 10 -17 -14 -18 -13
-12 4 6 14 5 16 -5 8 -9 -7 -17 -6 -26 4 -11 12 -9 14 8 14 11 0 20 4 20 10 0
5 -7 7 -15 4 -11 -5 -13 -2 -9 10 3 9 11 13 17 9 6 -4 8 0 4 10 -3 10 -3 17 1
17 4 0 13 9 20 21 10 16 10 19 1 13 -7 -4 -4 5 7 19 23 32 30 33 37 7 3 -12
13 -20 24 -19 16 1 16 2 1 6 -10 2 -18 9 -18 15 0 6 12 3 26 -7 27 -17 121
-45 154 -45 30 0 69 21 76 42 3 10 9 16 13 13 5 -2 6 7 3 20 -2 14 -9 25 -14
25 -5 0 -7 4 -4 9 3 5 -5 12 -19 15 -14 4 -25 11 -25 17 0 6 -5 7 -10 4 -6 -3
-17 1 -25 9 -9 8 -22 13 -30 10 -8 -4 -15 -1 -15 5 0 6 -8 11 -19 11 -10 0
-30 9 -43 20 -14 10 -28 16 -32 13 -3 -3 -6 2 -6 11 0 12 -5 16 -14 13 -9 -4
-17 2 -21 14 -4 10 -10 19 -15 19 -11 0 -40 58 -40 81 0 10 -5 21 -10 24 -9 5
-8 26 5 100 2 11 4 22 5 25 1 3 2 8 1 13 0 4 4 7 10 7 5 0 7 5 4 10 -3 6 -2
10 2 10 5 0 17 14 26 30 10 17 24 30 30 30 7 0 6 -4 -3 -10 -8 -5 -10 -10 -4
-10 16 0 75 56 67 64 -4 4 0 4 10 0 10 -3 17 -1 17 6 0 6 5 8 10 5 6 -4 18 -1
26 6 9 8 42 13 82 12 43 0 60 3 47 8 -12 4 0 6 30 2 28 -3 68 -13 90 -23z"/>
<path d="M2435 2450 c3 -5 8 -10 11 -10 2 0 4 5 4 10 0 6 -5 10 -11 10 -5 0
-7 -4 -4 -10z"/>
<path d="M598 2501 c-3 -278 -3 -280 -27 -305 -13 -14 -36 -28 -51 -31 -35 -8
-110 11 -111 28 0 7 -7 -8 -14 -33 -26 -85 -57 -175 -72 -208 -13 -31 -13 -35
3 -47 21 -15 94 -38 176 -56 46 -10 70 -10 115 0 119 26 191 77 248 175 50 86
57 136 64 459 l6 297 -167 0 -167 0 -3 -279z m296 -46 c-1 -162 -5 -302 -9
-312 -5 -10 -10 -27 -12 -38 -10 -53 -111 -177 -156 -191 -12 -4 -24 -10 -27
-15 -3 -4 -17 -9 -30 -11 -14 -2 -30 -7 -36 -11 -12 -7 -110 -2 -149 8 -11 3
-43 13 -72 22 -49 17 -51 19 -46 48 3 17 10 35 14 41 5 6 6 14 2 17 -3 4 -2 7
4 7 6 0 13 17 17 39 3 21 14 48 24 60 15 19 21 21 45 12 17 -7 26 -7 22 -1 -3
6 1 7 10 4 34 -14 104 41 123 96 7 19 11 125 11 275 1 135 1 246 1 248 0 1 60
1 132 -1 l133 -3 -1 -294z"/>
<path d="M1091 2488 c4 -161 11 -309 16 -328 43 -155 184 -272 346 -291 218
-24 387 61 469 235 l33 71 5 303 5 302 -170 0 -170 0 0 -269 0 -270 -29 -30
c-49 -51 -116 -41 -155 23 -21 33 -22 44 -19 290 l3 256 -170 0 -170 0 6 -292z
m295 257 c2 -5 5 -121 6 -257 l3 -247 38 -39 c20 -21 35 -41 32 -44 -4 -3 -2
-9 4 -13 6 -3 11 -1 11 5 0 6 4 9 9 5 16 -9 71 -13 65 -4 -5 8 17 14 39 10 4
0 7 3 7 9 0 5 6 8 13 6 6 -1 9 -1 5 1 -14 8 -8 25 6 20 14 -6 36 10 36 26 0 5
-8 3 -17 -4 -15 -11 -15 -10 1 8 17 21 18 39 17 212 -1 105 1 217 5 250 l6 60
118 3 c65 2 125 1 135 0 16 -4 17 -22 12 -265 -3 -144 -7 -269 -10 -277 -17
-66 -33 -103 -49 -111 -10 -5 -18 -18 -18 -27 0 -10 -6 -24 -12 -31 -11 -11
-10 -13 2 -7 8 4 6 0 -4 -8 -11 -9 -23 -16 -28 -16 -4 0 -8 -7 -8 -15 0 -9 -6
-12 -17 -8 -12 5 -14 3 -8 -7 6 -10 4 -12 -7 -7 -10 3 -24 -3 -35 -15 -66 -74
-301 -84 -419 -18 -27 15 -48 33 -46 40 1 7 -2 8 -9 4 -9 -5 -10 -2 -5 11 6
16 4 16 -11 4 -15 -12 -16 -12 -10 4 4 12 3 16 -4 11 -11 -7 -49 28 -49 46 0
5 -4 10 -10 10 -5 0 -10 9 -10 21 0 13 -4 18 -12 13 -8 -5 -9 -2 -5 9 3 9 2
19 -2 22 -14 8 -20 55 -7 55 6 0 4 5 -4 10 -13 8 -15 52 -18 279 l-3 270 108
3 c153 5 155 5 159 -7z m377 -790 c-3 -9 -8 -14 -10 -11 -3 3 -2 9 2 15 9 16
15 13 8 -4z"/>
<path d="M2910 2330 l0 -450 171 0 171 0 -4 200 c-2 110 0 200 5 200 4 0 7 -6
7 -14 0 -8 6 -21 13 -28 6 -7 22 -33 35 -58 12 -25 45 -85 73 -135 28 -49 58
-107 67 -127 l17 -38 188 0 187 0 0 450 0 450 -167 0 -168 0 3 -207 3 -208
-51 100 c-29 55 -76 143 -106 196 -30 54 -54 102 -54 108 0 8 -60 11 -195 11
l-195 0 0 -450z m370 405 c10 -9 16 -22 14 -29 -3 -7 2 -19 11 -26 8 -7 15
-21 15 -32 0 -10 4 -17 9 -14 12 8 35 -50 25 -66 -4 -7 -4 -10 1 -6 9 8 58
-65 86 -128 26 -57 52 -79 78 -65 19 11 21 21 23 199 l3 187 125 -2 c69 -1
127 -2 130 -3 3 0 5 -189 5 -420 l0 -421 -161 2 -161 1 -23 46 c-13 26 -28 50
-34 54 -7 5 -6 8 3 8 12 0 12 2 -1 13 -16 11 -68 102 -68 117 0 18 -76 131
-97 146 -23 14 -26 14 -38 -3 -7 -10 -12 -35 -10 -56 3 -25 0 -35 -7 -31 -7 5
-8 2 -3 -6 6 -9 9 -176 5 -282 0 -10 -242 -10 -255 0 -11 8 -15 824 -3 832 3
3 74 4 158 3 126 -1 155 -5 170 -18z"/>
<path d="M4000 2330 l0 -450 360 0 360 0 0 136 c0 110 -2 134 -13 126 -8 -7
-77 -10 -192 -9 l-180 2 -3 38 -3 38 170 -3 171 -3 0 128 0 127 -170 0 -170 0
0 36 0 35 185 -3 185 -3 0 128 0 127 -350 0 -350 0 0 -450z m655 418 c5 -5 8
-178 4 -183 -3 -2 -76 -5 -164 -6 -146 -2 -161 -4 -177 -22 -19 -21 -23 -63
-9 -86 12 -19 86 -30 214 -30 l107 -1 1 -67 c1 -38 3 -78 4 -90 2 -20 -3 -22
-79 -28 -45 -4 -112 -5 -151 -3 -79 5 -90 -1 -100 -55 -6 -28 -3 -39 14 -56
20 -20 32 -21 196 -21 l176 0 -3 -92 -3 -93 -323 0 -322 0 -1 415 c0 228 0
417 0 420 1 5 611 3 616 -2z"/>
<path d="M4785 2630 c0 -112 3 -149 12 -146 6 3 62 6 123 7 l111 1 0 -306 -1
-306 168 0 167 0 -3 307 -3 308 48 -2 c27 -2 83 -4 126 -5 l77 -3 0 147 0 148
-412 0 -413 0 0 -150z m795 6 l0 -114 -114 -4 c-63 -1 -118 -6 -122 -10 -10
-10 -11 -46 -13 -340 l-1 -258 -132 0 -133 0 2 284 c1 304 0 317 -48 322 -13
1 -63 3 -111 3 l-88 1 0 115 0 115 380 0 380 0 0 -114z"/>
<path d="M2775 2740 c-3 -5 -1 -10 4 -10 6 0 11 5 11 10 0 6 -2 10 -4 10 -3 0
-8 -4 -11 -10z"/>
<path d="M4760 2470 c0 -5 5 -10 11 -10 5 0 7 5 4 10 -3 6 -8 10 -11 10 -2 0
-4 -4 -4 -10z"/>
<path d="M5650 2455 c0 -8 2 -15 4 -15 2 0 6 7 10 15 3 8 1 15 -4 15 -6 0 -10
-7 -10 -15z"/>
<path d="M2779 2357 c6 -8 7 -18 3 -22 -4 -5 -1 -5 6 -1 10 6 10 11 1 22 -6 8
-14 14 -16 14 -3 0 0 -6 6 -13z"/>
<path d="M2238 2213 c7 -3 16 -2 19 1 4 3 -2 6 -13 5 -11 0 -14 -3 -6 -6z"/>
<path d="M4715 2189 c-4 -6 -5 -12 -2 -15 2 -3 7 2 10 11 7 17 1 20 -8 4z"/>
<path d="M2005 1980 c-3 -6 1 -7 9 -4 18 7 21 14 7 14 -6 0 -13 -4 -16 -10z"/>
<path d="M3410 1880 c0 -5 5 -10 11 -10 5 0 7 5 4 10 -3 6 -8 10 -11 10 -2 0
-4 -4 -4 -10z"/>
<path d="M2317 1719 c7 -7 15 -10 18 -7 3 3 -2 9 -12 12 -14 6 -15 5 -6 -5z"/>
<path d="M435 1710 c3 -5 8 -10 11 -10 2 0 4 5 4 10 0 6 -5 10 -11 10 -5 0 -7
-4 -4 -10z"/>
<path d="M1586 1708 c3 -5 10 -6 15 -3 13 9 11 12 -6 12 -8 0 -12 -4 -9 -9z"/>
<path d="M2195 1710 c3 -5 8 -10 11 -10 2 0 4 5 4 10 0 6 -5 10 -11 10 -5 0
-7 -4 -4 -10z"/>
<path d="M3335 1710 c-3 -6 1 -7 9 -4 18 7 21 14 7 14 -6 0 -13 -4 -16 -10z"/>
<path d="M3770 1711 c0 -5 7 -11 14 -14 10 -4 13 -1 9 9 -6 15 -23 19 -23 5z"/>
<path d="M990 1695 c-11 -13 -10 -14 4 -9 9 3 16 10 16 15 0 13 -6 11 -20 -6z"/>
<path d="M3825 1691 c-3 -5 -2 -12 3 -15 5 -3 9 1 9 9 0 17 -3 19 -12 6z"/>
<path d="M310 1529 l0 -151 71 4 c63 3 74 7 95 31 29 34 32 87 6 110 -10 10
-24 17 -30 17 -7 0 -12 5 -12 10 0 6 4 10 10 10 5 0 17 11 25 24 15 22 15 27
1 54 -17 34 -39 42 -113 42 l-53 0 0 -151z m118 107 c17 -10 15 -53 -4 -60 -9
-3 -29 -6 -45 -6 -27 0 -29 2 -29 40 0 39 1 39 33 37 18 -2 38 -6 45 -11z m16
-122 c9 -8 16 -26 16 -39 0 -35 -26 -55 -71 -55 l-39 0 0 55 0 55 39 0 c23 0
46 -7 55 -16z"/>
<path d="M396 1472 c-3 -5 1 -9 9 -9 8 0 12 4 9 9 -3 4 -7 8 -9 8 -2 0 -6 -4
-9 -8z"/>
<path d="M650 1550 c4 -114 7 -131 25 -145 41 -31 108 -31 150 1 18 13 21 30
25 144 l5 130 -23 0 c-22 0 -23 -1 -21 -117 1 -131 -5 -143 -68 -143 -48 0
-57 25 -55 153 3 105 2 107 -20 107 l-23 0 5 -130z"/>
<path d="M1033 1670 c-25 -10 -36 -42 -31 -86 2 -23 14 -35 57 -59 70 -39 81
-57 56 -85 -20 -22 -55 -24 -97 -5 -15 6 -18 2 -18 -18 0 -22 6 -27 35 -33 69
-13 125 23 125 79 0 42 -14 61 -70 90 -72 38 -67 103 7 86 40 -9 53 -5 53 16
0 25 -70 34 -117 15z"/>
<path d="M1185 1669 c-4 -6 -5 -12 -2 -15 2 -3 7 2 10 11 7 17 1 20 -8 4z"/>
<path d="M1310 1530 c0 -149 0 -150 23 -150 22 0 22 1 22 150 0 149 0 150 -22
150 -23 0 -23 -1 -23 -150z"/>
<path d="M1510 1530 c0 -149 0 -150 23 -150 22 0 22 1 19 112 l-4 113 29 -37
c15 -20 39 -53 53 -73 49 -69 84 -115 90 -115 3 0 5 67 5 150 0 143 -1 150
-20 150 -19 0 -20 -6 -17 -101 2 -64 0 -100 -6 -98 -10 4 -80 99 -123 167 -12
17 -27 32 -35 32 -11 0 -14 -28 -14 -150z"/>
<path d="M1875 1530 l0 -150 93 0 c85 0 92 1 92 20 0 18 -7 20 -74 20 l-74 0
-1 55 0 55 54 0 c48 0 55 2 55 20 0 18 -7 20 -56 20 l-55 0 3 37 3 36 73 -2
c67 -2 72 -1 72 18 0 20 -6 21 -92 21 l-93 0 0 -150z"/>
<path d="M2209 1661 c-17 -14 -23 -28 -22 -56 1 -43 12 -57 73 -87 47 -24 62
-56 40 -84 -14 -16 -53 -18 -80 -4 -15 8 -21 6 -30 -10 -9 -17 -7 -22 15 -30
39 -15 77 -12 105 7 34 23 40 33 40 68 0 41 -6 47 -72 85 -41 22 -58 38 -58
52 0 32 27 46 69 37 24 -5 38 -4 43 4 12 19 10 24 -14 31 -43 11 -86 6 -109
-13z"/>
<path d="M2500 1649 c-18 -18 -27 -37 -24 -47 15 -45 31 -63 71 -78 24 -10 48
-26 54 -36 24 -45 -25 -82 -82 -61 -24 9 -28 8 -33 -10 -7 -27 -5 -28 47 -34
74 -9 125 37 113 99 -5 28 -16 39 -67 66 -53 29 -60 37 -57 60 3 25 6 27 51
27 32 0 51 5 57 15 12 19 -9 28 -63 29 -31 1 -45 -5 -67 -30z"/>
<path d="M3080 1530 c0 -142 1 -150 19 -150 19 0 20 9 23 150 3 150 3 150 -19
150 -23 0 -23 -1 -23 -150z"/>
<path d="M3285 1530 c0 -143 1 -150 20 -150 19 0 20 6 17 110 -4 111 4 134 27
84 6 -15 36 -59 66 -99 30 -40 55 -78 55 -84 0 -6 6 -11 14 -11 12 0 15 28 15
150 2 150 2 150 -21 150 -23 0 -23 -1 -20 -107 2 -89 0 -105 -10 -91 -7 9 -42
57 -78 107 -36 50 -69 91 -75 91 -6 0 -10 -56 -10 -150z"/>
<path d="M3606 1668 c3 -5 10 -6 15 -3 13 9 11 12 -6 12 -8 0 -12 -4 -9 -9z"/>
<path d="M3655 1655 c-45 -44 -25 -97 50 -135 53 -27 68 -57 44 -86 -13 -16
-55 -15 -91 0 -11 5 -18 1 -23 -14 -9 -27 -6 -30 38 -37 72 -11 127 24 127 82
0 40 -16 57 -81 91 -37 18 -49 30 -49 47 0 32 31 48 71 37 24 -7 35 -6 41 3
12 19 10 24 -14 31 -49 13 -89 6 -113 -19z"/>
<path d="M3910 1659 c0 -20 4 -21 50 -17 l50 5 0 -133 c0 -132 0 -134 23 -134
22 0 22 1 19 134 l-3 135 55 -6 c52 -5 55 -4 53 16 -1 20 -6 21 -124 21 -119
0 -123 -1 -123 -21z"/>
<path d="M4285 1530 c0 -148 0 -150 22 -150 22 0 22 3 25 150 l3 150 -25 0
-25 0 0 -150z"/>
<path d="M4460 1659 c0 -20 4 -21 50 -17 l50 5 0 -133 c0 -127 1 -134 20 -134
19 0 20 7 20 134 l0 134 52 -2 c42 -1 53 2 56 17 3 15 -8 17 -122 17 -122 0
-126 -1 -126 -21z"/>
<path d="M4828 1559 c3 -113 5 -123 28 -148 20 -22 33 -26 78 -26 44 0 59 5
80 24 25 24 26 28 26 148 0 116 -1 123 -20 123 -19 0 -20 -7 -20 -113 0 -127
-9 -147 -67 -147 -53 0 -63 23 -63 148 0 109 -1 112 -22 112 -23 0 -23 -1 -20
-121z"/>
<path d="M5164 1663 c3 -14 13 -18 51 -18 l47 0 -1 -133 -2 -132 26 0 26 0 -2
133 -1 132 51 -3 c46 -4 51 -2 51 17 0 20 -5 21 -124 21 -113 0 -124 -2 -122
-17z"/>
<path d="M5535 1530 l0 -150 92 0 c86 0 92 1 90 20 -1 18 -8 20 -74 20 l-73 0
0 55 0 55 53 0 c46 0 53 3 54 20 2 18 -4 20 -53 20 l-54 0 0 38 0 37 72 0 c61
0 73 3 76 18 3 15 -6 17 -90 17 l-93 0 0 -150z"/>
<path d="M4410 1659 c0 -5 5 -7 10 -4 6 3 10 8 10 11 0 2 -4 4 -10 4 -5 0 -10
-5 -10 -11z"/>
<path d="M1625 1620 c-3 -5 -2 -10 4 -10 5 0 13 5 16 10 3 6 2 10 -4 10 -5 0
-13 -4 -16 -10z"/>
<path d="M1140 1589 c0 -5 5 -7 10 -4 6 3 10 8 10 11 0 2 -4 4 -10 4 -5 0 -10
-5 -10 -11z"/>
<path d="M2620 1581 c0 -6 4 -13 10 -16 6 -3 7 1 4 9 -7 18 -14 21 -14 7z"/>
<path d="M2227 1489 c7 -7 15 -10 18 -7 3 3 -2 9 -12 12 -14 6 -15 5 -6 -5z"/>
<path d="M2238 1463 c7 -3 16 -2 19 1 4 3 -2 6 -13 5 -11 0 -14 -3 -6 -6z"/>
<path d="M5065 1360 c3 -5 8 -10 11 -10 2 0 4 5 4 10 0 6 -5 10 -11 10 -5 0
-7 -4 -4 -10z"/>
<path d="M3635 1350 c3 -5 8 -10 11 -10 2 0 4 5 4 10 0 6 -5 10 -11 10 -5 0
-7 -4 -4 -10z"/>
<path d="M5005 1350 c-3 -5 -1 -10 4 -10 6 0 11 5 11 10 0 6 -2 10 -4 10 -3 0
-8 -4 -11 -10z"/>
<path d="M730 586 c0 -2 7 -7 16 -10 8 -3 12 -2 9 4 -6 10 -25 14 -25 6z"/>
<path d="M3639 581 c0 -3 0 -27 1 -53 1 -45 -10 -62 -25 -38 -21 33 -114 -24
-116 -72 -4 -74 6 -102 45 -123 30 -16 39 -17 63 -6 19 9 29 9 31 2 2 -6 10
-11 18 -11 11 0 14 28 14 153 0 130 -2 154 -15 154 -8 0 -15 -3 -16 -6z m-15
-117 c12 -5 16 -21 16 -74 0 -62 -2 -68 -22 -74 -36 -9 -47 -7 -68 14 -39 39
-14 140 34 140 14 0 31 -3 40 -6z"/>
<path d="M3748 578 c-15 -12 -15 -15 -2 -33 13 -18 15 -18 31 -2 15 15 16 19
2 32 -12 12 -18 13 -31 3z"/>
<path d="M298 530 c-35 -38 -38 -45 -38 -98 0 -70 23 -112 74 -136 26 -12 46
-15 69 -10 78 19 77 18 77 95 l0 69 -40 0 c-29 0 -40 -4 -40 -15 0 -9 9 -15
25 -15 22 0 25 -4 25 -34 0 -69 -68 -90 -121 -37 -24 24 -29 38 -29 76 0 25 5
55 11 67 17 31 70 49 110 38 19 -6 35 -10 36 -10 2 0 3 9 3 19 0 23 -19 31
-77 31 -41 0 -51 -5 -85 -40z"/>
<path d="M2420 425 c0 -138 1 -145 20 -145 18 0 20 7 20 65 0 61 1 65 23 65
16 0 30 -14 52 -51 47 -78 50 -81 72 -77 20 3 18 7 -22 68 l-42 64 28 27 c36
34 38 71 4 104 -21 22 -33 25 -90 25 l-65 0 0 -145z m123 100 c21 -9 23 -48 3
-64 -8 -7 -30 -15 -50 -18 l-36 -6 0 52 0 51 33 -4 c17 -3 40 -8 50 -11z"/>
<path d="M4404 535 c-71 -76 -54 -198 34 -240 37 -18 75 -14 109 13 15 12 20
21 14 31 -7 11 -13 11 -32 -3 -74 -51 -150 34 -120 135 14 46 40 62 97 61 33
0 43 4 47 19 5 17 -1 19 -55 19 -56 0 -63 -2 -94 -35z"/>
<path d="M763 548 c-4 -7 -6 -21 -5 -30 2 -11 -3 -18 -12 -18 -9 0 -16 -7 -16
-15 0 -8 7 -15 15 -15 12 0 15 -16 15 -80 0 -73 2 -81 24 -96 30 -19 70 -15
74 8 2 13 -2 15 -19 11 -33 -9 -49 21 -49 94 l0 63 30 0 c20 0 30 5 30 15 0
10 -10 15 -31 15 -30 0 -31 2 -25 30 4 22 2 30 -9 30 -7 0 -17 -6 -22 -12z"/>
<path d="M1953 548 c-4 -7 -6 -20 -5 -29 2 -10 -6 -19 -18 -22 -26 -7 -26 -27
0 -27 18 0 20 -7 20 -80 0 -73 2 -81 24 -96 31 -19 70 -15 74 9 3 14 -1 17
-20 12 -35 -9 -46 10 -49 85 l-3 65 32 3 c46 5 43 32 -3 32 -39 0 -39 -1 -25
34 7 20 6 26 -5 26 -7 0 -17 -6 -22 -12z"/>
<path d="M3505 519 c-4 -6 -5 -12 -2 -15 2 -3 7 2 10 11 7 17 1 20 -8 4z"/>
<path d="M4176 493 c-5 -12 -9 -14 -18 -5 -25 25 -93 4 -105 -32 -10 -29 -4
-68 13 -87 13 -14 13 -18 -1 -29 -39 -32 4 -68 60 -50 43 14 67 -3 54 -38 -11
-29 -56 -39 -89 -20 -21 12 -28 12 -38 2 -15 -16 -5 -23 50 -30 65 -9 108 15
108 60 0 47 -20 60 -79 52 -71 -9 -70 7 2 35 61 24 62 24 65 67 2 28 -1 42 -9
42 -7 0 -5 6 6 13 10 8 15 19 11 25 -10 17 -23 15 -30 -5z m-18 -61 c2 -18 -2
-40 -9 -48 -16 -20 -46 -17 -59 5 -23 45 -4 84 40 79 20 -2 26 -9 28 -36z"/>
<path d="M551 484 c-16 -12 -20 -19 -12 -27 8 -8 14 -8 23 1 18 18 75 15 82
-4 11 -29 6 -34 -34 -34 -76 0 -117 -77 -64 -119 32 -25 52 -26 83 -5 22 16
24 16 33 0 13 -23 43 -22 32 2 -4 9 -8 48 -8 85 -1 62 -4 71 -29 93 -33 28
-73 31 -106 8z m99 -119 c0 -38 -24 -59 -63 -53 -32 4 -35 51 -5 72 12 9 33
16 45 16 20 0 23 -5 23 -35z"/>
<path d="M938 484 c-35 -19 -48 -43 -48 -93 0 -54 7 -67 46 -92 27 -16 43 -19
74 -14 58 10 52 32 -10 31 -38 -1 -53 4 -64 19 -30 39 -17 49 61 46 39 -1 74
2 77 7 10 17 -15 80 -39 96 -30 20 -61 20 -97 0z m90 -26 c7 -7 12 -20 12 -30
0 -15 -9 -18 -60 -18 -64 0 -73 9 -43 42 18 20 73 24 91 6z"/>
<path d="M1090 498 c0 -2 9 -28 21 -58 12 -30 28 -79 37 -107 8 -29 19 -53 23
-53 4 0 18 32 30 70 13 42 27 70 35 70 8 0 14 -6 14 -14 0 -7 12 -39 26 -71
l27 -58 14 39 c8 22 21 59 29 84 8 25 19 55 26 67 6 13 9 26 5 29 -15 15 -34
-9 -56 -71 l-24 -67 -22 53 c-12 30 -25 62 -28 72 -11 31 -22 18 -42 -48 -11
-36 -25 -65 -31 -65 -6 0 -17 28 -25 63 -12 51 -18 63 -37 65 -12 2 -22 2 -22
0z"/>
<path d="M1428 486 c-26 -19 -24 -40 2 -26 33 18 82 8 91 -17 8 -21 6 -23 -30
-23 -53 0 -91 -31 -91 -75 0 -26 6 -39 25 -51 26 -17 74 -12 87 9 5 8 12 6 26
-6 10 -9 24 -17 30 -17 14 0 16 16 3 24 -4 3 -11 40 -13 82 -4 66 -9 79 -29
95 -28 22 -77 24 -101 5z m93 -123 c-5 -29 -12 -40 -34 -47 -21 -8 -31 -6 -43
6 -32 31 4 76 62 77 19 1 20 -3 15 -36z"/>
<path d="M1605 468 c4 -18 13 -44 20 -58 23 -45 47 -139 40 -160 -3 -11 -17
-23 -31 -26 -13 -3 -24 -12 -24 -20 0 -18 2 -18 44 3 37 17 37 18 97 198 11
33 24 64 30 70 16 16 10 27 -12 23 -18 -2 -27 -20 -50 -88 -31 -96 -29 -97
-67 31 -13 44 -22 59 -35 59 -16 0 -17 -5 -12 -32z"/>
<path d="M2112 472 c-50 -47 -54 -101 -12 -154 26 -34 62 -42 105 -24 40 17
55 47 55 108 0 32 -6 46 -31 69 -40 38 -78 38 -117 1z m98 -21 c27 -51 1 -141
-41 -141 -51 0 -81 99 -42 142 22 24 69 24 83 -1z"/>
<path d="M2655 469 c-30 -26 -35 -38 -35 -73 0 -48 19 -80 62 -102 36 -19 108
-11 108 12 0 12 -9 14 -43 9 -47 -7 -83 13 -89 49 -3 18 4 20 72 20 74 1 75 1
78 29 3 21 -5 35 -28 57 -42 39 -79 39 -125 -1z m109 -24 c9 -13 16 -27 16
-30 0 -3 -27 -5 -60 -5 -51 0 -60 3 -60 18 0 47 76 60 104 17z"/>
<path d="M2820 495 c0 -3 6 -16 14 -28 8 -12 17 -38 21 -57 4 -19 13 -44 19
-55 7 -11 16 -33 20 -49 l7 -29 19 39 c11 21 26 57 34 79 l14 40 22 -50 c12
-27 24 -63 27 -78 8 -40 25 -28 39 27 7 26 19 61 27 79 9 18 19 45 23 60 6 25
4 28 -12 25 -14 -2 -24 -22 -38 -71 -11 -37 -22 -67 -26 -67 -3 0 -16 32 -29
70 -13 39 -28 70 -32 70 -4 0 -13 -16 -19 -36 -7 -20 -18 -48 -26 -62 -8 -15
-14 -34 -15 -42 -1 -8 -5 3 -10 25 -5 22 -13 49 -18 60 -5 11 -12 28 -15 38
-5 15 -46 26 -46 12z"/>
<path d="M3168 489 c-10 -5 -18 -17 -18 -24 0 -18 1 -18 35 -1 28 15 54 11 67
-8 15 -22 7 -36 -19 -36 -49 0 -73 -12 -88 -41 -31 -60 24 -116 85 -85 28 14
34 14 47 1 8 -8 18 -15 23 -15 7 0 4 111 -6 157 -10 51 -79 80 -126 52z m92
-124 c0 -40 -27 -60 -66 -51 -49 13 -17 86 38 86 25 0 28 -3 28 -35z"/>
<path d="M3350 390 c0 -103 1 -110 20 -110 18 0 20 7 20 73 0 82 16 117 55
117 13 0 27 5 30 10 11 17 -25 23 -53 9 -15 -7 -30 -15 -35 -17 -4 -2 -4 3 -1
12 4 12 0 16 -15 16 -20 0 -21 -5 -21 -110z"/>
<path d="M3710 485 c0 -9 9 -15 21 -15 20 0 21 -5 18 -92 -3 -81 -1 -93 14
-96 15 -3 17 8 17 107 l0 111 -35 0 c-24 0 -35 -5 -35 -15z"/>
<path d="M3840 498 c-1 -2 -2 -52 -3 -111 -2 -102 -1 -108 18 -105 18 3 19 9
16 81 -3 89 6 107 54 107 40 0 47 -21 44 -119 -2 -55 0 -67 14 -69 19 -4 19
-6 17 103 -1 57 -6 85 -17 97 -20 22 -76 23 -94 2 -11 -14 -13 -14 -21 0 -7
13 -27 22 -28 14z"/>
<path d="M4635 488 c-28 -15 -28 -15 -20 -28 5 -8 10 -8 20 0 23 19 77 8 86
-17 8 -21 6 -23 -32 -23 -77 0 -117 -76 -63 -119 31 -24 40 -25 74 -8 21 11
29 11 48 -1 25 -16 43 -9 24 10 -7 7 -12 41 -12 80 0 60 -3 72 -25 93 -26 27
-66 32 -100 13z m87 -125 c-5 -41 -15 -53 -48 -53 -49 0 -53 61 -5 79 50 18
57 14 53 -26z"/>
<path d="M4820 390 c0 -103 1 -110 20 -110 18 0 20 7 20 84 0 90 6 102 53 108
15 1 29 8 30 13 3 17 -49 17 -63 1 -16 -20 -31 -21 -24 -1 4 10 0 15 -15 15
-20 0 -21 -5 -21 -110z"/>
<path d="M5008 484 c-36 -19 -48 -43 -48 -99 0 -74 57 -117 131 -98 41 11 36
29 -6 25 -47 -4 -71 5 -84 34 -6 15 -9 29 -7 32 3 2 39 4 81 4 67 -1 75 1 75
18 0 36 -19 69 -49 85 -37 19 -58 19 -93 -1z m92 -33 c18 -35 12 -41 -50 -41
-62 0 -68 8 -37 48 15 20 75 15 87 -7z"/>
<path d="M5204 466 c-27 -27 -34 -42 -34 -74 0 -45 28 -88 68 -103 34 -13 102
-2 102 17 0 11 -9 13 -40 8 -48 -8 -90 15 -90 49 0 21 4 22 75 20 l75 -2 0 32
c0 40 -7 50 -47 71 -47 24 -71 20 -109 -18z m103 -8 c31 -40 25 -48 -37 -48
-64 0 -73 9 -43 42 18 21 66 24 80 6z"/>
<path d="M5400 390 c0 -107 1 -110 23 -110 21 0 22 3 19 77 -1 43 2 84 6 91 5
8 25 17 43 21 19 4 34 11 34 16 0 17 -51 17 -65 1 -16 -20 -31 -21 -24 -1 4
10 0 15 -15 15 -20 0 -21 -5 -21 -110z"/>
<path d="M5567 482 c-32 -35 -22 -68 29 -98 34 -20 44 -32 42 -48 -3 -22 -34
-27 -69 -12 -11 5 -19 1 -23 -9 -4 -11 3 -19 22 -26 57 -22 121 24 103 75 -5
12 -27 31 -49 44 -51 28 -58 62 -14 62 15 0 33 -5 39 -11 7 -7 12 -6 16 6 5
11 -1 19 -19 25 -37 15 -59 12 -77 -8z"/>
<path d="M255 300 c3 -5 8 -10 11 -10 2 0 4 5 4 10 0 6 -5 10 -11 10 -5 0 -7
-4 -4 -10z"/>
<path d="M2275 300 c3 -5 8 -10 11 -10 2 0 4 5 4 10 0 6 -5 10 -11 10 -5 0 -7
-4 -4 -10z"/>
<path d="M3117 279 c7 -7 15 -10 18 -7 3 3 -2 9 -12 12 -14 6 -15 5 -6 -5z"/>
<path d="M1605 159 c-4 -6 -5 -12 -2 -15 2 -3 7 2 10 11 7 17 1 20 -8 4z"/>
</g>
</svg>
